<svg aria-hidden="true" style="position: absolute; width: 0; height: 0; overflow: hidden;" version="1.1" xmlns="http://www.w3.org/2000/svg" xmlns:xlink="http://www.w3.org/1999/xlink">
<defs>

<symbol id="icon-training" viewBox="0 0 27 32">

<symbol id="icon-human" viewBox="0 0 27 32">

<path d="M0.059 31.693h27.355c0.136-3.12-0.088-8.296-2.006-10.759l-0.069-0.088-4.191-2.104c0.091-0.307 0.136-0.588 0.154-0.795 0.020-0.248-0.014-0.481-0.102-0.692-0.692-1.654-2.155-2.525-2.96-2.896 0.245-0.494 0.404-1.025 0.48-1.567 0.466-0.134 0.823-0.5 0.94-0.962l0.002-0.009 0.489-1.987c0.026-0.098 0.040-0.211 0.040-0.327 0-0.257-0.072-0.498-0.198-0.702l0.003 0.006c-0.082-0.133-0.182-0.246-0.297-0.34l-0.002-0.002c1.379-3.133-0.931-6.087-1.057-6.242-2.501-2.705-5.663-2.199-5.829-2.169-4.562 0.955-6.321 4.451-5.328 8.55-0.216 0.238-0.348 0.555-0.348 0.903 0 0.114 0.014 0.225 0.041 0.331l-0.002-0.009 0.492 1.99c0.119 0.478 0.482 0.837 0.935 0.967 0.145 1.010 0.566 1.902 1.182 2.621l-0.006-0.007v1.575c-6.545 3.352-2.398 1.214-7.643 3.867-0.010 0.050-2.461 2.655-2.097 10.375l0.022 0.472zM26.463 30.702h-4.502v-1.891l2.978-6.817c1.491 2.476 1.547 7.203 1.524 8.708zM20.319 17.862c-0.174 1.996-1.268 1.393-1.944 2.93-0.531-0.584-0.691-1.285-0.548-2.036 0.258-1.377-0.583-1.786-0.374-3.233l0.031-0.033v-0.004c0.018-0.020 0.184-0.218 0.232-0.28 1.782 0.776 2.639 2.22 2.604 2.655zM10.764 16.293c0.809 0.571 1.816 0.913 2.903 0.913 1.039 0 2.004-0.312 2.809-0.848l-0.019 0.012c0.114 1.137 0.558 1.365 0.401 2.203-0.026 0.131-0.045 0.289-0.055 0.449l-0 0.010-3.066 3.455-3.92-4.419 0.946-0.494v-1.282zM9.532 12.065v-5.282c0.477-0.882 1.127-1.522 1.936-1.906 2.165 1.226 4.657 3.054 6.328 4.893-0.001 2.344 0.007 2.35-0.009 2.542l-0.001 0.012c-0.131 2.128-1.88 3.892-4.124 3.892-2.181 0-3.992-1.712-4.123-3.913-0.005-0.064-0.008-0.139-0.008-0.215 0-0.008 0-0.017 0-0.025v0.001zM8.921 18.546l4.817 5.43 3.233-3.645c0.074 0.213 0.177 0.414 0.296 0.608l-3.53 4.415-5.264-6.584 0.447-0.224zM18.783 11.268v-1.53l0.368-0.422c0.020 0.775 0.104-0.139-0.368 1.952zM12.993 1.029c0.195 0.012 2.824-0.4 4.901 1.843 0.082 0.102 1.772 2.281 1.093 4.664-0.233-1.060-0.638-2.419-1.279-3.068l-0.7 0.698c0.633 0.64 1.048 2.591 1.206 3.602-2.9-3.035-6.642-4.957-6.694-4.989-0.188 0.116-1.771 0.417-2.921 2.653l-0.055 0.107v1.642l-0.145 0.001c-0.731-3.528 0.669-6.331 4.593-7.153zM8.296 9.201l0.249 1.008v1.060l-0.414-1.674c-0.061-0.25 0.125-0.345 0.165-0.394zM7.571 19.224l6.166 7.712 4.172-5.218c0.453 0.406 0.672 0.464 1.634 0.959l-0.324-1.101c-0.083-0.279 0.243-0.728 0.44-0.933 0.443-0.243 0.807-0.581 1.074-0.988l0.007-0.011 3.404 1.709-3.167 7.251v2.099h-14.478v-2.098l-3.169-7.251 4.242-2.129zM2.534 21.997l2.978 6.815v1.891h-4.502c-0.022-1.504 0.033-6.228 1.524-8.705z"></path>
</symbol>
<symbol id="icon-classroom" viewBox="0 0 32 32">
<path d="M29.537-0.128h-15.746c-1.026 0.001-1.858 0.833-1.859 1.859v6.519l-11.699 4.909c-0.139 0.059-0.235 0.194-0.235 0.352 0 0.139 0.074 0.26 0.185 0.326l0.002 0.001 1.491 0.893v9.516c-0.769 0.181-1.333 0.861-1.334 1.673v0.917c0 0.211 0.17 0.381 0.381 0.381h2.671c0.211 0 0.381-0.171 0.381-0.381v0-0.917c0-0.816-0.573-1.498-1.337-1.673v-9.060l1.179 0.706c-0.036 0.272-0.004-0.474-0.016 4.43 0 1.612 4.129 2.476 8.33 2.525v7.425c0 0.383 0.118 0.74 0.319 1.036 0.338 0.497 0.901 0.819 1.539 0.82h15.747c1.025-0.001 1.857-0.832 1.857-1.857v-0c0 0.051-0.002-1.573 0-28.539 0-1.012-0.836-1.859-1.856-1.859zM3.013 25.918v0.537h-1.909v-0.537c0-0.528 0.427-0.957 0.952-0.957 0.528 0 0.957 0.43 0.957 0.957zM29.537 31.364h-15.746c-0.378 0-0.712-0.191-0.909-0.481-0.117-0.171-0.187-0.383-0.187-0.611 0-0 0-0.001 0-0.002v0-2.574h17.934v2.575c0 0.596-0.497 1.092-1.091 1.092zM30.629 26.935h-17.935v-4.086c2.051-0.023 8.335-0.475 8.335-2.527-0.003-3.080 0.005-4.33-0.010-4.436l3.421-2.049c0.111-0.068 0.184-0.189 0.184-0.326 0-0.157-0.095-0.292-0.23-0.35l-0.002-0.001-11.697-4.91v-3.182h17.935v21.868zM12.313 17.792c-2.113 0-6.182 0.273-7.949 1.427 0.011-3.53-0.123-3.3 0.312-3.6 1.098-0.808 4.238-1.373 7.637-1.373 1.482 0 7.954 0.407 7.954 1.777v3.196c-1.784-1.165-5.832-1.428-7.954-1.428zM12.694 1.731c0.001-0.605 0.491-1.095 1.096-1.095 0 0 0 0 0 0h15.745c0.605 0 1.093 0.498 1.093 1.095v2.574h-17.934v-2.574zM12.313 8.915l11.090 4.655-2.748 1.644c-1.46-1.449-6.293-1.729-8.342-1.729-2.051 0-6.884 0.281-8.342 1.729l-2.749-1.644 11.091-4.655zM4.364 20.321c0-0.616 2.73-1.768 7.949-1.768 5.222 0 7.954 1.151 7.954 1.767s-2.732 1.768-7.954 1.768c-5.219 0-7.949-1.151-7.949-1.768z"></path>
</symbol>
<symbol id="icon-financial" viewBox="0 0 28 32">
<path d="M0.542 13.742c0 0.357-0.542 0.357-0.542 0 0-7.588 6.154-13.742 13.742-13.742 7.591 0 13.742 6.154 13.742 13.742 0 0.357-0.538 0.357-0.538 0 0-5.129-8.429-5.132-8.429 0 0 0.357-0.555 0.357-0.555 0 0-5.116-8.441-5.116-8.441 0 0 0.357-0.555 0.357-0.555 0 0-5.107-8.425-5.142-8.425 0zM9.015 11.75c0.147-2.952 0.61-5.599 1.285-7.62 0.539-1.607 1.22-2.826 1.992-3.511-5.794 0.633-10.485 5.025-11.533 10.722 1.995-2.877 6.602-2.647 8.257 0.409zM17.921 11.617c-0.149-2.838-0.6-5.378-1.249-7.315-1.673-5.013-4.185-5.013-5.859 0-0.649 1.937-1.097 4.477-1.249 7.315 1.801-3.059 6.557-3.059 8.357 0zM26.725 11.341c-1.045-5.697-5.736-10.089-11.533-10.721 0.775 0.685 1.453 1.905 1.992 3.511 0.675 2.021 1.139 4.668 1.285 7.62 1.665-3.072 6.284-3.253 8.257-0.409zM11.939 20.030v-2.791c-0.503 0.334-0.899 0.85-0.899 1.48 0 0.613 0.402 1.019 0.899 1.311zM12.48 20.897c-0.963-0.441-1.979-0.957-1.979-2.178 0-1.259 0.957-1.888 1.979-2.359v4.536zM15.546 24.24v2.823c0.509-0.338 0.908-0.857 0.908-1.487 0-0.619-0.409-1.037-0.909-1.336zM15.007 23.371c0.967 0.447 1.989 0.98 1.989 2.206 0 1.262-0.963 1.891-1.989 2.359v-4.565z"></path>
<path d="M15.546 14.063c2.219 0.513 4.5 2.173 4.5 4.655 0 2.125-3.592 2.047-3.592 0 0-0.633-0.399-1.151-0.908-1.486v3.971c2.053 0.671 4.506 1.875 4.506 4.373 0 2.485-2.281 4.143-4.507 4.652-0.009 2.365-3.6 2.361-3.607-0.003-1.265-0.292-2.365-0.883-3.16-1.664-0.833-0.825-1.327-1.859-1.327-2.985 0-2.092 3.588-2.092 3.588 0 0 0.627 0.395 1.142 0.899 1.477v-3.968c-2.037-0.659-4.503-1.898-4.503-4.373 0-2.485 2.281-4.143 4.503-4.652 0.009-2.365 3.601-2.362 3.607 0.003zM12.48 14.070v0.431c-2.112 0.419-4.506 1.771-4.506 4.211 0 2.346 2.628 3.397 4.507 3.977v5.243c-1.016-0.464-1.98-1.090-1.98-2.355 0-1.382-2.511-1.382-2.511 0 0 0.977 0.435 1.879 1.168 2.599 0.931 0.921 2.060 1.36 3.322 1.609v0.435c0 1.665 2.527 1.665 2.527 0v-0.431c2.119-0.422 4.503-1.775 4.503-4.211 0-2.368-2.621-3.387-4.503-3.98v-5.24c1.019 0.464 1.989 1.091 1.989 2.362 0 1.347 2.508 1.401 2.508 0 0-2.436-2.381-3.793-4.497-4.214v-0.435c0-1.665-2.527-1.665-2.527 0z"></path>
</symbol>
<symbol id="icon-paper" viewBox="0 0 30 32">
<path d="M29.977 4.975v-0.003c-0.015-0.035-0.036-0.065-0.061-0.090l-0-0-4.848-4.799c-0.012-0.012-0.025-0.023-0.040-0.032l-0.001-0.001-0.009-0.006c-0.010-0.006-0.022-0.013-0.035-0.019l-0.002-0.001-0.011-0.005c-0.030-0.012-0.064-0.019-0.1-0.020h-21.362c-0.158 0-0.286 0.127-0.286 0.283v29.271c0 0.019 0.002 0.037 0.005 0.056l0.007 0.023c0.003 0.010 0.005 0.020 0.009 0.030l0.013 0.025c0.005 0.007 0.008 0.016 0.013 0.023 0.010 0.015 0.021 0.028 0.033 0.040l-0-0 0.002 0.003 2.184 2.161c0.111 0.111 0.293 0.111 0.405 0l1.982-1.96 1.981 1.96c0.052 0.052 0.123 0.084 0.202 0.084s0.15-0.032 0.202-0.084v0l1.981-1.96 1.982 1.96c0.112 0.111 0.293 0.111 0.405 0l1.98-1.96 1.981 1.96c0.112 0.111 0.293 0.111 0.405 0l1.983-1.96 1.98 1.96c0.052 0.052 0.124 0.084 0.203 0.084s0.151-0.032 0.203-0.084v0l1.981-1.96 1.982 1.96c0.111 0.111 0.293 0.111 0.405 0l2.183-2.161c0.005-0.004 0.007-0.009 0.011-0.013 0.008-0.009 0.017-0.019 0.024-0.029 0.007-0.009 0.011-0.020 0.017-0.030l0.009-0.019c0.006-0.013 0.009-0.027 0.012-0.039l0.005-0.013c0.004-0.017 0.006-0.037 0.007-0.058v-24.47c-0.001-0.039-0.010-0.076-0.025-0.11l0.001 0.002zM25.151 0.969l3.871 3.831h-3.869v-3.831zM29.426 29.437l-1.897 1.877-1.982-1.96c-0.052-0.051-0.124-0.083-0.203-0.083s-0.151 0.032-0.203 0.083l0-0-1.98 1.96-1.981-1.96c-0.052-0.051-0.124-0.083-0.203-0.083s-0.151 0.032-0.203 0.083l0-0-1.982 1.96-1.98-1.96c-0.052-0.052-0.124-0.084-0.203-0.084s-0.151 0.032-0.203 0.084h-0.001l-1.98 1.96-1.982-1.96c-0.052-0.051-0.124-0.083-0.203-0.083s-0.15 0.032-0.203 0.083l0-0-1.98 1.96-1.981-1.96c-0.052-0.051-0.124-0.083-0.203-0.083s-0.151 0.032-0.203 0.083l0-0-1.982 1.96-1.897-1.877v-28.87h20.783v4.515c0 0.157 0.129 0.284 0.287 0.284h4.561v24.071z"></path>
<path d="M5.931 3.251h9.384c0.159 0 0.287-0.127 0.287-0.284s-0.128-0.284-0.285-0.284c-0 0-0.001 0-0.001 0h-9.384c-0.159 0-0.287 0.127-0.287 0.284s0.128 0.284 0.287 0.284zM5.931 5.005h15.049c0.158 0 0.287-0.127 0.287-0.284-0.001-0.157-0.128-0.283-0.285-0.283-0 0-0.001 0-0.001 0h-15.049c-0.159 0-0.287 0.127-0.287 0.283s0.128 0.284 0.287 0.284zM5.645 6.58v9.187c0 0.157 0.128 0.284 0.287 0.284h21.357c0.158 0 0.287-0.127 0.287-0.284v-9.187c-0.001-0.157-0.128-0.283-0.285-0.283-0 0-0.001 0-0.001 0h-21.357c-0.159 0-0.287 0.127-0.287 0.284zM11.978 6.864h15.023v2.442h-15.023v-2.442zM11.978 9.873h15.023v2.44h-15.023v-2.44zM11.978 12.881h15.023v2.601h-15.023v-2.601zM6.218 6.864h5.187v2.442h-5.187v-2.442zM6.218 9.873h5.187v2.44h-5.187v-2.44zM6.218 12.881h5.187v2.601h-5.187v-2.601zM27.289 17.327h-21.357c-0.159 0-0.287 0.127-0.287 0.284v9.187c0 0.156 0.128 0.283 0.287 0.283s0.287-0.127 0.287-0.283v-2.885h5.187v2.885c0 0.157 0.129 0.283 0.287 0.283s0.287-0.127 0.287-0.283v-2.885h15.023v2.885c0 0.157 0.128 0.283 0.287 0.283s0.287-0.127 0.287-0.283v-9.186c-0-0.157-0.127-0.283-0.284-0.283-0.001 0-0.001 0-0.002 0h0zM11.405 23.344h-5.187v-2.44h5.187v2.44zM11.405 20.336h-5.187v-2.441h5.187v2.441zM27.001 23.344h-15.023v-2.44h15.023v2.44zM27.001 20.336h-15.023v-2.441h15.023v2.441zM1.863 0c-0.158 0-0.287 0.127-0.287 0.284v29.271c0 0.156 0.129 0.283 0.287 0.283s0.287-0.127 0.287-0.283v-29.271c-0.001-0.157-0.128-0.284-0.285-0.284-0 0-0.001 0-0.001 0h0zM0.287 0c-0.158 0-0.287 0.127-0.287 0.284v29.271c0 0.156 0.129 0.283 0.287 0.283s0.287-0.127 0.287-0.283v-29.271c-0.001-0.157-0.128-0.284-0.285-0.284-0 0-0.001 0-0.001 0h0z"></path>
</symbol>
<symbol id="icon-book" viewBox="0 0 43 32">
<path d="M19.101 4.52h-13.658v1.029h13.658v-1.029zM19.101 8.358h-11.613v1.028h11.614v-1.028zM19.101 12.195h-13.658v1.028h13.658v-1.028zM19.101 16.032h-11.613v1.028h11.614v-1.028zM19.101 19.869h-13.658v1.029h13.658v-1.030zM19.101 23.706h-11.613v1.029h11.614v-1.029zM37.85 4.52h-13.658v1.029h13.658v-1.029zM35.805 8.358h-11.613v1.028h11.614v-1.028zM37.85 12.195h-13.658v1.028h13.658v-1.028zM35.805 16.032h-11.613v1.028h11.614v-1.028zM37.85 19.869h-13.658v1.029h13.658v-1.030zM35.805 23.706h-11.613v1.029h11.614v-1.029z"></path>
<path d="M42.783 3.349h-1.875v-2.834c0-0.001 0-0.001 0-0.002 0-0.283-0.23-0.513-0.513-0.513 0 0 0 0 0 0h-15.285c-0.004 0-0.009-0-0.014-0-1.475 0-2.761 0.809-3.44 2.007l-0.010 0.020c-0.689-1.218-1.976-2.026-3.451-2.026-0.004 0-0.009 0-0.013 0h-15.285c-0.282 0-0.512 0.231-0.512 0.515v2.833h-1.875c-0.282 0-0.511 0.232-0.511 0.515v27.624c0 0.283 0.229 0.514 0.511 0.514h42.272c0.282 0 0.511-0.231 0.511-0.515v-27.623c0-0 0-0.001 0-0.001 0-0.283-0.229-0.512-0.511-0.513h-0zM25.111 1.029h14.775v27.561h-15.866c-0.711 0.012-1.359 0.268-1.867 0.689l0.005-0.004v-25.282c-0-0.006-0-0.012-0-0.019 0-1.627 1.319-2.946 2.946-2.946 0.002 0 0.005 0 0.007 0h-0zM3.409 1.029h14.775c0.003 0 0.007-0 0.011-0 1.592 0 2.888 1.267 2.935 2.847l0 0.004c0 0.022 0.003 0.091 0.007 0.113v25.28c-0.5-0.416-1.146-0.672-1.852-0.683l-0.002-0h-15.874v-27.561zM1.023 4.377h1.363v24.728c0 0.284 0.23 0.515 0.512 0.515h16.383c0.779 0 1.533 0.514 1.774 1.352h-20.032v-26.595zM42.271 30.971h-20.031c0.225-0.786 0.937-1.351 1.781-1.352h16.377c0.282 0 0.512-0.231 0.512-0.515v-24.728h1.363v26.594z"></path>
</symbol>
<symbol id="icon-psychological" viewBox="0 0 32 32">
<path d="M1.979 12.558v2.831c0 0.152 0.069 0.295 0.188 0.39 1.847 1.47 4.213 2.359 6.787 2.362h0.001c0.776-0.001 1.532-0.083 2.262-0.237l-0.072 0.013c1.423 0.652 3.086 1.032 4.839 1.032 0.006 0 0.011 0 0.017 0h-0.001c0.007 0 0.015 0 0.024 0 1.75 0 3.411-0.38 4.906-1.062l-0.074 0.030c3.069 0.625 6.339-0.046 8.978-2.138 0.115-0.092 0.188-0.232 0.188-0.39 0-0 0-0 0-0v0-2.831c0-0.415-0.205-0.794-0.571-1.027l-3.84-2.176c0.84-1.073 1.466-2.602 1.575-3.913 0.319-2.256-1.507-4.646-4.135-4.646-1.105 0-2.156 0.459-2.927 1.227-0.027 0.027-0.057 0.049-0.083 0.077-0.023 0.025-0.043 0.054-0.066 0.080-0.015 0.017-0.029 0.035-0.044 0.053-0.751-1.381-2.195-2.233-3.896-2.233-0.173 0.001-0.343 0.011-0.51 0.030l0.022-0.002c-0.010-0.001-0.019-0.006-0.029-0.006-0.091 0-0.285 0.025-0.387 0.055-0.015 0.004-0.027 0.015-0.041 0.021-1.289 0.264-2.354 1.056-2.98 2.135l-0.011 0.021c-0.763-0.894-1.89-1.457-3.15-1.457-0.002 0-0.005 0-0.007 0h0c-3.88 0-5.601 4.612-2.539 8.581l-3.875 2.167c-0.332 0.216-0.549 0.585-0.549 1.005 0 0.003 0 0.007 0 0.010v-0.001zM20.846 16.828c-0.083 0.041-0.165 0.085-0.249 0.123l-0.002 0.001c-1.338 0.635-2.908 1.006-4.565 1.006-0.011 0-0.021 0-0.032-0h0.002c-1.601 0-3.147-0.339-4.596-1.007-0.775-0.362-1.441-0.769-2.056-1.24l0.026 0.019v-2.87c0-0.097 0.047-0.184 0.101-0.221l4.509-2.525c0.561 0.48 1.278 0.832 2.020 0.832 0.716 0 1.489-0.357 2.038-0.843l4.455 2.52c0.082 0.053 0.129 0.139 0.129 0.237v2.87c-0.517 0.395-1.101 0.76-1.717 1.069l-0.063 0.029zM28.945 12.381c0.055 0.037 0.091 0.099 0.091 0.169 0 0.003-0 0.005-0 0.008v-0 2.587c-1.636 1.252-3.711 2.007-5.963 2.007-0.255 0-0.509-0.010-0.759-0.029l0.033 0.002c0.367-0.231 0.765-0.517 1.075-0.761 0.115-0.092 0.189-0.232 0.189-0.39 0 0 0-0 0-0v0-3.115c0-0.435-0.217-0.835-0.606-1.087l-2.366-1.339 0.575-0.321c0.698 0.573 1.297 0.744 1.835 0.744 0.657 0 1.35-0.325 1.864-0.759l4.031 2.284zM23.050 1.788c1.371 0 2.574 0.902 3 2.142-0.884-0.116-1.654-0.532-2.219-1.14l-0.002-0.002c-0.090-0.096-0.218-0.156-0.36-0.156-0.179 0-0.335 0.095-0.422 0.238l-0.001 0.002c-0.561 0.948-1.482 1.58-2.529 1.76v-0.003c0-0.024 0.001-0.053 0.001-0.082 0-0.201-0.012-0.4-0.036-0.595l0.002 0.023-0.007-0.066c-0.034-0.24-0.077-0.446-0.13-0.647l0.009 0.039c0.559-0.902 1.598-1.513 2.693-1.513zM20.409 5.643c1.284-0.144 2.392-0.798 3.134-1.751l0.008-0.010c0.762 0.629 1.728 1.010 2.683 1.056-0.007 1.792-1.46 4.927-3.183 4.927-1.328 0-2.461-1.912-2.885-3.238 0.107-0.341 0.186-0.669 0.243-0.983zM20.509 9.373l-0.88 0.491-0.887-0.503c0.329-0.413 0.631-0.893 0.889-1.413 0.249 0.527 0.547 1.010 0.878 1.425zM19.182 6.465c-0.475 1.427-1.693 3.49-3.177 3.49-1.73 0-3.203-2.864-3.483-4.696 0.075-0.019 2.412 0.127 4.020-2.001 0.817 0.688 1.918 1.143 2.989 1.188 0.013 0.647-0.143 1.407-0.35 2.019zM16.034 0.991c2.76 0 3.285 2.393 3.328 2.443-1.011-0.114-1.895-0.581-2.542-1.274l-0.002-0.002c-0.090-0.097-0.218-0.157-0.36-0.157-0.18 0-0.337 0.097-0.423 0.242l-0.001 0.002c-0.527 0.9-1.367 1.568-2.368 1.86l-0.029 0.007c-0.339 0.097-0.729 0.153-1.132 0.153-0.009 0-0.019-0-0.028-0h0.001c0.135-1.821 1.585-3.273 3.555-3.273zM12.372 7.938c0.255 0.515 0.559 1.007 0.907 1.439l-0.87 0.487-0.9-0.51c0.341-0.439 0.631-0.929 0.863-1.415zM8.941 1.788c1.117 0 2.14 0.571 2.71 1.514-0.029 0.1-0.106 0.498-0.116 0.548-0.719-0.179-1.334-0.552-1.805-1.060l-0.002-0.002c-0.090-0.097-0.217-0.157-0.359-0.157-0.18 0-0.337 0.097-0.422 0.241l-0.001 0.002c-0.648 1.089-1.817 1.808-3.154 1.815h-0.001c0.157-1.627 1.507-2.9 3.151-2.9zM5.835 5.677c1.467-0.019 2.768-0.713 3.609-1.785l0.008-0.010c0.565 0.468 1.254 0.805 2.011 0.956l0.029 0.005c0.029 0.575 0.178 1.273 0.348 1.789-0.271 0.84-0.793 1.84-1.44 2.505-0.004 0.004-0.010 0.006-0.013 0.010-0.405 0.43-0.981 0.719-1.434 0.719-1.583 0-2.82-2.508-3.117-4.188zM2.964 12.558c0-0.075 0.033-0.139 0.067-0.162l4.087-2.284c0.245 0.206 0.301 0.229 0.351 0.265 0.48 0.323 0.921 0.483 1.523 0.483 0.64 0 1.223-0.273 1.737-0.694 0.029-0.023 0.060-0.045 0.087-0.068l0.583 0.33-2.429 1.361c-0.363 0.236-0.58 0.637-0.58 1.071v3.115c0 0.152 0.069 0.295 0.189 0.389 0.314 0.249 0.722 0.539 1.075 0.761-2.417 0.167-4.768-0.528-6.689-1.98v-2.587z"></path>
<path d="M31.034 20.781c-0.31-0.2-0.688-0.319-1.094-0.319-0.327 0-0.636 0.077-0.91 0.215l0.012-0.005-6.075 2.957c-0.021-1.145-0.949-2.072-2.092-2.072l-3.483 0.001c-1.718-1.504-3.913-2.425-5.909-2.473-1.297-0.033-2.895-0.056-4.497-0.064l-0.063-0v-1.002h-6.921v11.516h6.922v-1.379c1.898 1.098 6.888 3.846 9.257 3.846 0.053 0 0.107-0.001 0.157-0.005 4.165-0.235 13.989-7.198 14.637-7.66 0.619-0.368 1.027-1.034 1.027-1.795 0-0.001 0-0.001 0-0.002v0c0-0.003 0-0.006 0-0.009 0-0.733-0.382-1.378-0.958-1.745l-0.008-0.005zM5.937 28.542h-4.953v-9.533h4.953v9.533zM30.467 23.485c-0.017 0.009-0.031 0.018-0.045 0.028l0.001-0.001c-0.102 0.073-10.207 7.271-14.142 7.493-0.036 0.002-0.077 0.003-0.12 0.003h-0c-2.077 0-7.143-2.753-9.24-4.001v-6.997c0.821 0.003 2.578 0.017 4.536 0.063 1.824 0.044 3.849 0.921 5.417 2.346l0.14 0.127h3.86c0.613 0 1.111 0.501 1.111 1.118s-0.499 1.119-1.111 1.119h-7.091v0.991h7.091c0.68 0 1.279-0.333 1.661-0.839l6.933-3.373c0.341-0.167 0.72-0.146 1.042 0.057 0.32 0.202 0.504 0.537 0.504 0.918 0 0.391-0.21 0.753-0.549 0.945zM16.493 12.159h-0.985v0.92h0.985v-0.92zM16.493 13.992h-0.985v0.92h0.985v-0.92zM16.493 15.827h-0.985v0.919h0.985v-0.92z"></path>
</symbol>
<symbol id="icon-listen-book" viewBox="0 0 37 32">
<path d="M2.319 29.825h12.404c0.62 1.296 1.92 2.175 3.426 2.175 0.001 0 0.001 0 0.002 0h0.783c0.001 0 0.003 0 0.004 0 1.505 0 2.806-0.879 3.415-2.152l0.010-0.023h12.41c1.279 0 2.319-1.054 2.319-2.349v-22.512c0-1.295-1.040-2.349-2.319-2.349h-1.251v-1.049c-0.001-0.863-0.695-1.566-1.547-1.566h-26.867c-0.851 0-1.544 0.703-1.544 1.566v1.049h-1.246c-1.278 0-2.318 1.054-2.318 2.349v22.512c0 1.295 1.040 2.349 2.319 2.349zM31.974 24.994h-12.655v-18.196c2.925 0.388 5.193 2.924 5.193 5.993v0.705l-0.183-0.040c-0.050-0.011-0.107-0.018-0.166-0.018-0.37 0-0.68 0.261-0.754 0.609l-0.001 0.005-1.23 5.673c-0.092 0.422 0.172 0.839 0.589 0.931l2.658 0.594c0.137 0.029 0.276 0.044 0.416 0.044 0.935 0 1.731-0.647 1.935-1.577l0.713-3.28c0.234-1.077-0.44-2.148-1.505-2.388l-0.926-0.207v-1.051c0-3.934-2.959-7.18-6.739-7.575v-3.65h12.657l-0.001 23.428zM24.751 15.154l1.898 0.423c0.196 0.044 0.341 0.217 0.341 0.424 0 0.035-0.004 0.069-0.012 0.101l0.001-0.003-0.711 3.28c-0.052 0.2-0.231 0.346-0.444 0.346-0.025 0-0.050-0.002-0.074-0.006l0.003 0-1.9-0.425 0.899-4.142zM5.108 1.565h12.664v3.649c-3.783 0.391-6.746 3.64-6.746 7.576v1.051l-0.927 0.207c-0.516 0.116-0.957 0.428-1.24 0.877-0.195 0.304-0.311 0.675-0.311 1.073 0 0.155 0.018 0.305 0.051 0.45l-0.003-0.013 0.711 3.276c0.195 0.906 0.986 1.576 1.935 1.583h0.001c0.14 0 0.279-0.015 0.422-0.046l2.647-0.592c0.416-0.094 0.679-0.511 0.588-0.932l-1.229-5.673c-0.075-0.353-0.385-0.614-0.755-0.614-0.059 0-0.116 0.007-0.171 0.019l0.005-0.001-0.177 0.040v-0.705c0-3.071 2.272-5.609 5.201-5.993v18.197h-12.665v-23.428zM12.327 15.153l0.9 4.141-1.889 0.423c-0.027 0.006-0.059 0.009-0.091 0.009-0.209 0-0.385-0.147-0.428-0.343l-0.001-0.003-0.712-3.284c-0.007-0.029-0.011-0.063-0.011-0.097 0-0.206 0.143-0.378 0.335-0.422l0.003-0.001 1.894-0.423zM1.545 4.964c0-0.002-0-0.003-0-0.005 0-0.428 0.346-0.775 0.773-0.778h1.244v20.813c0 0.864 0.694 1.567 1.546 1.567h26.867c0.852 0 1.545-0.703 1.545-1.567v-20.812h1.252c0.428 0.003 0.773 0.35 0.773 0.778 0 0.002 0 0.004-0 0.005v-0 22.511c0 0.002 0 0.003 0 0.005 0 0.428-0.346 0.775-0.773 0.778h-12.936c-0.34 0-0.639 0.225-0.739 0.553-0.283 0.945-1.145 1.622-2.165 1.622h-0.783c-0.997 0-1.867-0.649-2.167-1.631-0.101-0.317-0.392-0.543-0.736-0.544h-12.928c-0.428-0.003-0.773-0.35-0.773-0.778 0-0.002 0-0.004 0-0.005v0-22.512z"></path>
</symbol>
<symbol id="icon-check-mark" viewBox="0 0 40 32">
<path d="M35.296 1.514c-1.52 0.664-2.978 1.475-4.368 2.379-2.798 1.797-5.355 3.936-7.754 6.218-2.359 2.269-4.563 4.644-6.628 7.138l-0.114 0.142c-0.528 0.637-2.891 3.472-2.891 3.472l-9.83-14.382-3.71 10.043 13.293 15.477c1.291-2.552 2.533-5.070 3.752-7.258 0.304-0.557 0.619-1.080 0.923-1.613 0 0 1.56-2.677 1.97-3.35 1.823-3.007 3.593-5.559 5.501-7.999l-0.134 0.178c1.955-2.491 4.080-4.87 6.49-6.96 1.141-1.015 2.395-1.962 3.723-2.804l0.118-0.070c1.365-0.848 2.814-1.59 4.365-2.125-1.613 0.31-3.187 0.848-4.704 1.514z"></path>
</symbol>
<symbol id="icon-fire" viewBox="0 0 23 32">
<path d="M21.497 16.59c-0.284-0.636-0.675-1.261-1.247-1.984-1.442-1.813-1.882-5.856-1.887-5.895-0.022-0.194-0.155-0.352-0.334-0.411l-0.003-0.001c-0.045-0.015-0.096-0.023-0.15-0.023-0.146 0-0.277 0.063-0.368 0.164l-0 0c-1.721 1.924-0.997 4.896-0.606 6.084 0.107 0.325 0.224 0.708 0.307 1.095 0.636 3.137-0.591 4.558-0.88 4.844-0.277 0.078-0.469 0.039-0.645-0.149-0.606-0.665-0.806-2.842-0.523-5.678 0.023-0.194 0.036-0.419 0.036-0.647 0-0.33-0.028-0.653-0.080-0.968l0.005 0.034c-0.597-3.486-2.79-5.723-3.349-6.507-1.533-2.269-1.69-6.046-1.695-6.080-0.011-0.261-0.225-0.468-0.488-0.468-0.102 0-0.198 0.032-0.276 0.086l0.002-0.001c-2.562 1.743-2.342 5.937-1.985 8.278 0.082 0.544 0.244 1.095 0.523 1.794 0.992 2.496-0.195 5.721-0.206 5.749-0.010 0.030-0.019 0.053-0.025 0.083-0.151 0.795-0.405 1.269-0.689 1.269-0.033-0-0.065-0.005-0.095-0.015l0.002 0.001c-0.347-0.073-0.528-0.441-0.533-0.761-0.019-4.137-4.171-5.527-4.213-5.542-0.045-0.015-0.096-0.024-0.15-0.024-0.147 0-0.279 0.065-0.368 0.168l-0.001 0.001c-0.075 0.084-0.12 0.195-0.12 0.317 0 0.079 0.019 0.154 0.053 0.219l-0.001-0.003c0.049 0.102 0.205 0.548 0.097 2.124-0.102 1.521-0.376 2.939-0.803 4.288l0.035-0.128c-0.987 3.22-0.83 6.27-0.821 6.415 0.761 8.257 12.636 9.705 19.683 5.053 0.772-0.51 1.404-1.091 1.868-1.731 2.602-3.588 1.071-8.461-0.068-11.051zM3.433 24.478c0 0.008 0.001 0.016 0.001 0.025 0 0.259-0.203 0.471-0.459 0.484l-0.001 0h-0.030c-0.001 0-0.002 0-0.003 0-0.258 0-0.469-0.201-0.485-0.454l-0-0.001c-0.044-0.708-0.034-1.45 0.019-2.255 0.023-0.254 0.234-0.451 0.492-0.451 0.011 0 0.022 0 0.032 0.001l-0.001-0c0.256 0.017 0.456 0.229 0.456 0.487 0 0.011-0 0.022-0.001 0.032l0-0.001c-0.053 0.766-0.064 1.465-0.019 2.133zM3.671 20.182c-0.030 0.242-0.234 0.427-0.482 0.427-0.001 0-0.002 0-0.003 0h0c-0.019 0-0.038 0-0.064-0.005-0.242-0.032-0.427-0.237-0.427-0.486 0-0.018 0.001-0.036 0.003-0.054l-0 0.002 0.235-1.872c0.035-0.241 0.241-0.425 0.489-0.425 0.021 0 0.041 0.001 0.061 0.004l-0.002-0c0.269 0.034 0.46 0.276 0.427 0.543l-0.235 1.867z"></path>
</symbol>
<symbol id="icon-facebook" viewBox="0 0 32 32">
<path d="M28.572 0h-25.143c-0.909 0-1.781 0.358-2.425 0.995-0.619 0.613-1.003 1.463-1.004 2.403v24.924c0 0.902 0.362 1.766 1.004 2.403 0.643 0.638 1.515 0.996 2.425 0.996h9.804v-10.784h-4.5v-5.077h4.501v-3.869c0-4.4 2.642-6.831 6.69-6.831 1.938 0 3.965 0.342 3.965 0.342v4.32h-2.233c-2.202 0-2.887 1.354-2.887 2.741v3.296h4.912l-0.786 5.077h-4.128v10.784h9.805c0.909 0 1.781-0.358 2.425-0.996 0.62-0.613 1.004-1.463 1.005-2.403v-24.924c0-0.901-0.362-1.765-1.004-2.403-0.622-0.615-1.477-0.995-2.422-0.995-0.001 0-0.002 0-0.003 0h0z"></path>
</symbol>
<symbol id="icon-instagram" viewBox="0 0 32 32">
<path d="M31.452 5.724c-0.299-2.73-2.446-4.877-5.15-5.174l-0.026-0.002c-3.083-0.349-6.656-0.548-10.276-0.548s-7.193 0.199-10.71 0.587l0.434-0.039c-2.73 0.299-4.877 2.446-5.174 5.15l-0.002 0.026c-0.349 3.083-0.548 6.656-0.548 10.276s0.199 7.193 0.587 10.71l-0.039-0.434c0.299 2.73 2.446 4.877 5.15 5.174l0.026 0.002c6.844 0.73 13.708 0.73 20.552 0 2.73-0.299 4.877-2.446 5.174-5.15l0.002-0.026c0.73-6.844 0.73-13.708 0-20.552z"></path>
<path d="M29.712 6.881c-0.266-2.422-2.171-4.326-4.57-4.59l-0.023-0.002c-6.074-0.648-12.165-0.648-18.238 0-2.422 0.266-4.327 2.17-4.591 4.568l-0.002 0.023c-0.648 6.074-0.648 12.165 0 18.238 0.266 2.423 2.171 4.328 4.57 4.592l0.023 0.002c6.073 0.648 12.164 0.648 18.238 0 2.422-0.266 4.327-2.171 4.59-4.57l0.002-0.023c0.649-6.072 0.649-12.164 0-18.238z"></path>
<path d="M0.48 25.613c0.022 0.222 0.044 0.442 0.068 0.664 0.299 2.73 2.446 4.877 5.15 5.174l0.026 0.002c6.844 0.73 13.709 0.73 20.552 0 2.73-0.299 4.877-2.446 5.174-5.15l0.002-0.026c0.024-0.222 0.046-0.442 0.069-0.664h-31.041z"></path>
<path d="M31.452 26.276c0.392-3.678 0.574-7.36 0.544-11.043l-7.314-7.314c-0.914-1.043-2.25-1.694-3.818-1.751-1.444-0.054-3.14-0.085-4.843-0.085s-3.399 0.031-5.088 0.092l0.244-0.007c-2.68 0.093-4.553 1.894-5.034 4.54-0.085 0.468-0.135 0.941-0.202 1.412v7.759c0.037 0.251 0.091 0.502 0.108 0.754 0.107 1.61 0.768 2.989 1.828 3.922l7.443 7.443c3.653 0.026 7.306-0.156 10.954-0.546 2.73-0.299 4.877-2.446 5.174-5.15l0.002-0.026z"></path>
<path d="M31.452 26.277c-0.3 2.73-2.446 4.876-5.15 5.174l-0.026 0.002c-3.647 0.389-7.301 0.57-10.954 0.544l-7.432-7.432c0.862 0.755 1.985 1.214 3.288 1.263 3.225 0.121 6.462 0.118 9.686 0.002 2.917-0.106 5.028-2.264 5.119-5.182 0.097-3.097 0.097-6.202 0-9.299-0.042-1.346-0.514-2.53-1.297-3.426l7.31 7.31c0.029 3.682-0.152 7.366-0.545 11.044z"></path>
<path d="M19.776 12.534c-0.941-1.030-2.29-1.674-3.79-1.674-2.831 0-5.126 2.295-5.126 5.126 0 1.5 0.644 2.849 1.67 3.786l0.004 0.004 11.858 11.859c0.627-0.054 1.255-0.115 1.882-0.182 2.73-0.3 4.876-2.446 5.174-5.15l0.002-0.026c0.066-0.627 0.128-1.255 0.182-1.882l-11.858-11.859z"></path>
<path d="M31.938 19.447l-9.544-9.544c-0.225-0.299-0.578-0.49-0.977-0.49-0.673 0-1.219 0.546-1.219 1.219 0 0.398 0.191 0.752 0.486 0.975l0.003 0.002 11.080 11.080c0.074-1.080 0.131-2.162 0.17-3.242z"></path>
<path d="M5.943 12.119c0.066-0.471 0.117-0.944 0.202-1.411 0.48-2.647 2.354-4.448 5.034-4.54 3.226-0.111 6.462-0.117 9.686 0 2.916 0.104 5.028 2.264 5.119 5.181 0.046 1.386 0.073 3.015 0.073 4.65s-0.026 3.264-0.079 4.886l0.006-0.237c-0.091 2.918-2.202 5.076-5.118 5.182-3.226 0.116-6.462 0.119-9.687-0.002-2.916-0.11-4.933-2.274-5.128-5.195-0.016-0.253-0.070-0.504-0.107-0.755v-7.758zM16.002 24.101c1.476 0 2.954 0.044 4.428-0.010 2.311-0.086 3.733-1.465 3.786-3.774 0.067-2.877 0.067-5.758 0-8.635-0.054-2.309-1.476-3.72-3.786-3.77-1.31-0.029-2.853-0.046-4.4-0.046s-3.090 0.017-4.629 0.050l0.229-0.004c-2.293 0.048-3.719 1.431-3.781 3.714-0.080 2.914-0.080 5.832 0 8.746 0.062 2.283 1.488 3.634 3.781 3.719 1.456 0.054 2.914 0.010 4.372 0.010z"></path>
<path d="M5.943 12.119c0.066-0.471 0.117-0.944 0.202-1.411 0.48-2.647 2.354-4.448 5.034-4.54 3.226-0.111 6.462-0.117 9.686 0 2.916 0.104 5.028 2.264 5.119 5.181 0.046 1.386 0.073 3.015 0.073 4.65s-0.026 3.264-0.079 4.886l0.006-0.237c-0.091 2.918-2.202 5.076-5.118 5.182-3.226 0.116-6.462 0.119-9.687-0.002-2.916-0.11-4.933-2.274-5.128-5.195-0.016-0.253-0.070-0.504-0.107-0.755v-7.758zM16.002 24.101c1.476 0 2.954 0.044 4.428-0.010 2.311-0.086 3.733-1.465 3.786-3.774 0.067-2.877 0.067-5.758 0-8.635-0.054-2.309-1.476-3.72-3.786-3.77-1.31-0.029-2.853-0.046-4.4-0.046s-3.090 0.017-4.629 0.050l0.229-0.004c-2.293 0.048-3.719 1.431-3.781 3.714-0.080 2.914-0.080 5.832 0 8.746 0.062 2.283 1.488 3.634 3.781 3.719 1.456 0.054 2.914 0.010 4.372 0.010z"></path>
<path d="M16 10.874c-2.831 0-5.126 2.295-5.126 5.126s2.295 5.126 5.126 5.126v0c2.831 0 5.126-2.295 5.126-5.126s-2.295-5.126-5.126-5.126v0zM16 19.361c-1.856 0-3.361-1.505-3.361-3.361s1.505-3.361 3.361-3.361v0c1.856 0 3.361 1.505 3.361 3.361s-1.505 3.361-3.361 3.361v0zM22.644 10.641c0 0.673-0.546 1.219-1.219 1.219s-1.219-0.546-1.219-1.219v0c0-0.673 0.546-1.219 1.219-1.219s1.219 0.546 1.219 1.219v0z"></path>
</symbol>
<symbol id="icon-phone" viewBox="0 0 32 32">
<path d="M4.657 0.002c-0.558 0.028-1.050 0.284-1.391 0.676l-0.002 0.002-2.594 2.969c0.004-0.009-0.011-0.007-0.083 0.101-0.037 0.053-0.068 0.114-0.089 0.179l-0.001 0.005c-1.056 3.502-0.348 7.354 1.376 11.018 1.726 3.664 4.476 7.17 7.634 10.047 3.157 2.877 6.721 5.127 10.118 6.244 3.398 1.117 6.692 1.102 9.134-0.742 0.027-0.021 0.052-0.043 0.074-0.067l0-0c0.064-0.066 0.066-0.075 0.055-0.064l0.011-0.014 2.581-2.956c0.741-0.849 0.683-2.185-0.134-2.957l-6.125-5.799c-0.352-0.335-0.829-0.541-1.354-0.541-0.593 0-1.124 0.262-1.484 0.677l-0.002 0.002-2.771 3.173c-2.251-0.678-4.174-1.828-6.023-3.58-1.85-1.753-3.132-3.637-3.993-5.906l2.77-3.172c0.742-0.849 0.683-2.185-0.132-2.957l-6.126-5.799c-0.351-0.335-0.827-0.541-1.351-0.541-0.034 0-0.068 0.001-0.102 0.003l0.005-0zM4.715 1.303c0.008-0 0.018-0.001 0.028-0.001 0.2 0 0.381 0.080 0.513 0.21l-0-0 6.126 5.801c0.316 0.299 0.337 0.775 0.050 1.104l-3.063 3.504c-0.101 0.118-0.162 0.273-0.162 0.442 0 0.080 0.014 0.157 0.039 0.228l-0.001-0.005c0.93 2.64 2.43 4.806 4.493 6.761 2.064 1.953 4.275 3.303 6.889 4.017 0.049 0.014 0.105 0.022 0.163 0.022 0.185 0 0.351-0.083 0.462-0.213l0.001-0.001 3.063-3.506c0.132-0.161 0.331-0.262 0.553-0.262 0.198 0 0.378 0.081 0.507 0.211l0 0 6.127 5.799c0.316 0.299 0.336 0.775 0.049 1.103l-2.561 2.931c-2.003 1.497-4.826 1.581-7.986 0.542-3.173-1.042-6.618-3.202-9.666-5.98s-5.701-6.17-7.332-9.633c-1.614-3.429-2.199-6.895-1.312-9.951l2.502-2.862c0.127-0.15 0.31-0.248 0.517-0.261l0.002-0z"></path>
</symbol>
</defs>
</svg>
